<?xml version="1.0" standalone="no"?>
<!DOCTYPE svg PUBLIC "-//W3C//DTD SVG 20010904//EN"
 "http://www.w3.org/TR/2001/REC-SVG-20010904/DTD/svg10.dtd">
<svg version="1.0" xmlns="http://www.w3.org/2000/svg"
 width="700.000000pt" height="700.000000pt" viewBox="0 0 700.000000 700.000000"
 preserveAspectRatio="xMidYMid meet">
<metadata>
Created by potrace 1.14, written by Peter Selinger 2001-2017
</metadata>
<g transform="translate(0.000000,700.000000) scale(0.100000,-0.100000)"
fill="#000000" stroke="none">
<path d="M3625 5503 c-79 -41 -104 -93 -105 -212 0 -100 -13 -148 -52 -196
-47 -56 -97 -76 -216 -86 -57 -4 -129 -15 -160 -24 -276 -79 -473 -273 -562
-551 -32 -98 -41 -344 -15 -395 24 -48 44 -68 87 -90 78 -40 186 -11 236 63
23 36 26 52 32 171 8 148 26 209 85 289 76 103 181 155 345 169 191 16 312 71
425 191 117 123 169 273 163 464 -3 90 -6 105 -31 142 -15 23 -45 51 -67 62
-47 24 -123 26 -165 3z"/>
<path d="M4444 5401 c-23 -10 -54 -36 -70 -56 -27 -36 -29 -44 -35 -179 -10
-190 -39 -268 -134 -355 -74 -68 -135 -91 -288 -106 -73 -8 -161 -23 -197 -34
-226 -72 -383 -271 -397 -503 -7 -105 -2 -127 39 -174 76 -87 200 -87 276 0
34 39 36 46 52 145 21 137 86 183 285 200 131 12 170 20 260 58 194 81 368
270 431 467 46 145 57 383 21 452 -20 39 -55 70 -99 89 -49 20 -94 19 -144 -4z"/>
<path d="M1723 3876 c-106 -34 -187 -108 -224 -205 -20 -54 -20 -70 -17 -426
5 -411 10 -455 82 -670 184 -549 665 -964 1241 -1071 151 -28 462 -26 602 4
512 111 933 441 1144 897 l44 95 155 0 c192 0 265 15 390 76 232 115 380 356
380 619 0 305 -194 566 -495 667 l-70 23 -1595 2 c-1302 2 -1603 -1 -1637 -11z
m2614 -638 c-3 -202 -10 -307 -21 -368 -88 -450 -404 -815 -831 -958 -274 -92
-588 -82 -861 28 -155 62 -318 173 -435 296 -150 159 -245 335 -307 563 -24
91 -25 112 -30 409 l-4 312 1247 0 1248 0 -6 -282z m625 250 c66 -31 127 -90
159 -156 19 -38 23 -63 24 -137 0 -107 -22 -163 -93 -233 -67 -68 -117 -85
-251 -90 l-114 -4 7 28 c3 16 9 163 13 328 l6 298 96 -4 c77 -3 107 -9 153
-30z"/>
</g>
</svg>
